<svg width="34" height="34" viewBox="0 0 34 34" fill="none" xmlns="http://www.w3.org/2000/svg">
<circle cx="17" cy="17" r="16.5" fill="#282828" stroke="#B3B3B3"/>
<path fill-rule="evenodd" clip-rule="evenodd" d="M12.0554 6.51186C12.2138 6.09449 12.663 5.89148 13.0589 6.05843C13.568 6.27311 14.3069 6.9736 14.3914 8.22122C14.4468 9.03871 14.1783 9.56039 13.9667 9.93599L13.9595 9.94879C13.7645 10.2952 13.6986 10.4121 13.6986 10.6396C13.6986 10.8011 13.7509 10.9335 13.8598 11.0783C13.9663 11.2201 14.0908 11.3312 14.254 11.4771C14.2862 11.5059 14.32 11.5361 14.3554 11.5681C14.6791 11.8606 14.7166 12.3745 14.4391 12.7158C14.1617 13.0571 13.6743 13.0966 13.3506 12.804C13.3279 12.7835 13.3007 12.76 13.27 12.7333C12.9298 12.4383 12.1546 11.7659 12.1546 10.6396C12.1546 9.95057 12.426 9.47712 12.5983 9.17649C12.6127 9.15143 12.6264 9.12758 12.6391 9.10491C12.7943 8.82937 12.8732 8.65921 12.8514 8.3372C12.8316 8.04502 12.7407 7.856 12.6559 7.73858C12.5759 7.62785 12.5016 7.58048 12.487 7.57122C12.4843 7.56949 12.4837 7.56909 12.4855 7.56985C12.0896 7.40291 11.8971 6.92923 12.0554 6.51186Z" fill="#D9D9D9"/>
<path fill-rule="evenodd" clip-rule="evenodd" d="M18.0554 6.51186C18.2138 6.09449 18.663 5.89148 19.0589 6.05843C19.568 6.27311 20.3069 6.9736 20.3914 8.22122C20.4468 9.03871 20.1783 9.56039 19.9667 9.93599L19.9595 9.94879C19.7645 10.2952 19.6986 10.4121 19.6986 10.6396C19.6986 10.8011 19.7509 10.9335 19.8598 11.0783C19.9663 11.2201 20.0908 11.3312 20.254 11.4771C20.2862 11.5059 20.32 11.5361 20.3554 11.5681C20.6791 11.8606 20.7166 12.3745 20.4391 12.7158C20.1617 13.0571 19.6743 13.0966 19.3506 12.804C19.3279 12.7835 19.3007 12.76 19.27 12.7333C18.9298 12.4383 18.1546 11.7659 18.1546 10.6396C18.1546 9.95057 18.426 9.47712 18.5983 9.17649C18.6127 9.15143 18.6264 9.12758 18.6391 9.10491C18.7943 8.82937 18.8732 8.65921 18.8514 8.3372C18.8316 8.04502 18.7407 7.856 18.6559 7.73858C18.5759 7.62785 18.5016 7.58048 18.487 7.57122C18.4843 7.56949 18.4837 7.56909 18.4855 7.56985C18.0896 7.40291 17.8971 6.92923 18.0554 6.51186Z" fill="#D9D9D9"/>
<path fill-rule="evenodd" clip-rule="evenodd" d="M26.2644 14C26.2644 14.312 26.2541 14.6212 26.2338 14.9269C26.4129 14.9171 26.5979 14.9253 26.7859 14.9578C27.9493 15.1591 28.6863 15.8907 28.9902 16.8119C29.2646 17.6434 29.1591 18.529 28.9295 19.1845C28.6522 19.9762 28.0594 20.7255 27.3712 21.3C26.6722 21.8836 25.775 22.3714 24.7924 22.5414C24.1296 22.6561 23.5093 22.6841 22.9894 22.6688C22.4472 23.2398 21.851 23.7389 21.2111 24.1538H27.1604C27.1604 25.1734 26.3581 26 25.3684 26H9.24005C8.25033 26 7.44801 25.1734 7.44801 24.1538H12.0533C9.04391 22.2023 7 18.3871 7 14H26.2644ZM24.7678 20.1799C25.2218 19.3241 25.5842 18.3919 25.8387 17.403C25.9092 17.3666 25.9778 17.3353 26.0437 17.3095C26.2594 17.2252 26.3767 17.227 26.4149 17.2336C26.619 17.2689 26.7137 17.3329 26.7565 17.3704C26.8002 17.4089 26.8394 17.4637 26.8693 17.5545C26.9394 17.7669 26.9282 18.0993 26.8225 18.4012C26.723 18.6851 26.4357 19.1107 25.9608 19.5072C25.5978 19.8102 25.183 20.0473 24.7678 20.1799Z" fill="#D9D9D9"/>
</svg>
